  0
SECTION
  2
HEADER
  9
$ACADVER
  1
AC1015
  9
$ACADMAINTVER
 70
     6
  9
$DWGCODEPAGE
  3
ANSI_1251
  9
$INSBASE
 10
0.0
 20
0.0
 30
0.0
  9
$EXTMIN
 10
10.61748858450517
 20
8.85143466296961
 30
0.0
  9
$EXTMAX
 10
662.9083772920546
 20
632.8760377012347
 30
0.0
  9
$LIMMIN
 10
0.0
 20
0.0
  9
$LIMMAX
 10
420.0
 20
297.0
  9
$ORTHOMODE
 70
     0
  9
$REGENMODE
 70
     1
  9
$FILLMODE
 70
     1
  9
$QTEXTMODE
 70
     0
  9
$MIRRTEXT
 70
     0
  9
$LTSCALE
 40
1.0
  9
$ATTMODE
 70
     1
  9
$TEXTSIZE
 40
2.5
  9
$TRACEWID
 40
1.0
  9
$TEXTSTYLE
  7
Standard
  9
$CLAYER
  8
0
  9
$CELTYPE
  6
ByLayer
  9
$CECOLOR
 62
   256
  9
$CELTSCALE
 40
1.0
  9
$DISPSILH
 70
     0
  9
$DIMSCALE
 40
1.0
  9
$DIMASZ
 40
2.5
  9
$DIMEXO
 40
0.625
  9
$DIMDLI
 40
3.75
  9
$DIMRND
 40
0.0
  9
$DIMDLE
 40
0.0
  9
$DIMEXE
 40
1.25
  9
$DIMTP
 40
0.0
  9
$DIMTM
 40
0.0
  9
$DIMTXT
 40
2.5
  9
$DIMCEN
 40
2.5
  9
$DIMTSZ
 40
0.0
  9
$DIMTOL
 70
     0
  9
$DIMLIM
 70
     0
  9
$DIMTIH
 70
     0
  9
$DIMTOH
 70
     0
  9
$DIMSE1
 70
     0
  9
$DIMSE2
 70
     0
  9
$DIMTAD
 70
     1
  9
$DIMZIN
 70
     8
  9
$DIMBLK
  1

  9
$DIMASO
 70
     1
  9
$DIMSHO
 70
     1
  9
$DIMPOST
  1

  9
$DIMAPOST
  1

  9
$DIMALT
 70
     0
  9
$DIMALTD
 70
     3
  9
$DIMALTF
 40
0.03937007874016
  9
$DIMLFAC
 40
1.0
  9
$DIMTOFL
 70
     1
  9
$DIMTVP
 40
0.0
  9
$DIMTIX
 70
     0
  9
$DIMSOXD
 70
     0
  9
$DIMSAH
 70
     0
  9
$DIMBLK1
  1

  9
$DIMBLK2
  1

  9
$DIMSTYLE
  2
ISO-25
  9
$DIMCLRD
 70
     0
  9
$DIMCLRE
 70
     0
  9
$DIMCLRT
 70
     0
  9
$DIMTFAC
 40
1.0
  9
$DIMGAP
 40
0.625
  9
$DIMJUST
 70
     0
  9
$DIMSD1
 70
     0
  9
$DIMSD2
 70
     0
  9
$DIMTOLJ
 70
     0
  9
$DIMTZIN
 70
     8
  9
$DIMALTZ
 70
     0
  9
$DIMALTTZ
 70
     0
  9
$DIMUPT
 70
     0
  9
$DIMDEC
 70
     2
  9
$DIMTDEC
 70
     2
  9
$DIMALTU
 70
     2
  9
$DIMALTTD
 70
     3
  9
$DIMTXSTY
  7
Standard
  9
$DIMAUNIT
 70
     0
  9
$DIMADEC
 70
     0
  9
$DIMALTRND
 40
0.0
  9
$DIMAZIN
 70
     0
  9
$DIMDSEP
 70
    44
  9
$DIMATFIT
 70
     3
  9
$DIMFRAC
 70
     0
  9
$DIMLDRBLK
  1

  9
$DIMLUNIT
 70
     2
  9
$DIMLWD
 70
    -2
  9
$DIMLWE
 70
    -2
  9
$DIMTMOVE
 70
     0
  9
$LUNITS
 70
     2
  9
$LUPREC
 70
     3
  9
$SKETCHINC
 40
1.0
  9
$FILLETRAD
 40
10.0
  9
$AUNITS
 70
     0
  9
$AUPREC
 70
     0
  9
$MENU
  1
.
  9
$ELEVATION
 40
0.0
  9
$PELEVATION
 40
0.0
  9
$THICKNESS
 40
0.0
  9
$LIMCHECK
 70
     0
  9
$CHAMFERA
 40
10.0
  9
$CHAMFERB
 40
10.0
  9
$CHAMFERC
 40
20.0
  9
$CHAMFERD
 40
0.0
  9
$SKPOLY
 70
     0
  9
$TDCREATE
 40
2455022.720692847
  9
$TDUCREATE
 40
2455022.637359514
  9
$TDUPDATE
 40
2458506.611623993
  9
$TDUUPDATE
 40
2458506.52829066
  9
$TDINDWG
 40
0.002180463
  9
$TDUSRTIMER
 40
0.002180463
  9
$USRTIMER
 70
     1
  9
$ANGBASE
 50
0.0
  9
$ANGDIR
 70
     0
  9
$PDMODE
 70
     0
  9
$PDSIZE
 40
0.0
  9
$PLINEWID
 40
0.0
  9
$SPLFRAME
 70
     0
  9
$SPLINETYPE
 70
     6
  9
$SPLINESEGS
 70
     8
  9
$HANDSEED
  5
1F5
  9
$SURFTAB1
 70
     6
  9
$SURFTAB2
 70
     6
  9
$SURFTYPE
 70
     6
  9
$SURFU
 70
     6
  9
$SURFV
 70
     6
  9
$UCSBASE
  2

  9
$UCSNAME
  2

  9
$UCSORG
 10
0.0
 20
0.0
 30
0.0
  9
$UCSXDIR
 10
1.0
 20
0.0
 30
0.0
  9
$UCSYDIR
 10
0.0
 20
1.0
 30
0.0
  9
$UCSORTHOREF
  2

  9
$UCSORTHOVIEW
 70
     0
  9
$UCSORGTOP
 10
0.0
 20
0.0
 30
0.0
  9
$UCSORGBOTTOM
 10
0.0
 20
0.0
 30
0.0
  9
$UCSORGLEFT
 10
0.0
 20
0.0
 30
0.0
  9
$UCSORGRIGHT
 10
0.0
 20
0.0
 30
0.0
  9
$UCSORGFRONT
 10
0.0
 20
0.0
 30
0.0
  9
$UCSORGBACK
 10
0.0
 20
0.0
 30
0.0
  9
$PUCSBASE
  2

  9
$PUCSNAME
  2

  9
$PUCSORG
 10
0.0
 20
0.0
 30
0.0
  9
$PUCSXDIR
 10
1.0
 20
0.0
 30
0.0
  9
$PUCSYDIR
 10
0.0
 20
1.0
 30
0.0
  9
$PUCSORTHOREF
  2

  9
$PUCSORTHOVIEW
 70
     0
  9
$PUCSORGTOP
 10
0.0
 20
0.0
 30
0.0
  9
$PUCSORGBOTTOM
 10
0.0
 20
0.0
 30
0.0
  9
$PUCSORGLEFT
 10
0.0
 20
0.0
 30
0.0
  9
$PUCSORGRIGHT
 10
0.0
 20
0.0
 30
0.0
  9
$PUCSORGFRONT
 10
0.0
 20
0.0
 30
0.0
  9
$PUCSORGBACK
 10
0.0
 20
0.0
 30
0.0
  9
$USERI1
 70
     0
  9
$USERI2
 70
     0
  9
$USERI3
 70
     0
  9
$USERI4
 70
     0
  9
$USERI5
 70
     0
  9
$USERR1
 40
0.0
  9
$USERR2
 40
0.0
  9
$USERR3
 40
0.0
  9
$USERR4
 40
0.0
  9
$USERR5
 40
0.0
  9
$WORLDVIEW
 70
     1
  9
$SHADEDGE
 70
     3
  9
$SHADEDIF
 70
    70
  9
$TILEMODE
 70
     1
  9
$MAXACTVP
 70
    64
  9
$PINSBASE
 10
0.0
 20
0.0
 30
0.0
  9
$PLIMCHECK
 70
     0
  9
$PEXTMIN
 10
1.000000000000000E+20
 20
1.000000000000000E+20
 30
1.000000000000000E+20
  9
$PEXTMAX
 10
-1.000000000000000E+20
 20
-1.000000000000000E+20
 30
-1.000000000000000E+20
  9
$PLIMMIN
 10
0.0
 20
0.0
  9
$PLIMMAX
 10
0.0
 20
0.0
  9
$UNITMODE
 70
     0
  9
$VISRETAIN
 70
     1
  9
$PLINEGEN
 70
     0
  9
$PSLTSCALE
 70
     1
  9
$TREEDEPTH
 70
  3020
  9
$CMLSTYLE
  2
Standard
  9
$CMLJUST
 70
     0
  9
$CMLSCALE
 40
20.0
  9
$PROXYGRAPHICS
 70
     1
  9
$MEASUREMENT
 70
     1
  9
$CELWEIGHT
370
    -1
  9
$ENDCAPS
280
     0
  9
$JOINSTYLE
280
     0
  9
$LWDISPLAY
290
     0
  9
$INSUNITS
 70
     4
  9
$HYPERLINKBASE
  1

  9
$STYLESHEET
  1

  9
$XEDIT
290
     1
  9
$CEPSNTYPE
380
     0
  9
$PSTYLEMODE
290
     1
  9
$FINGERPRINTGUID
  2
{EC6BB858-51AA-46EC-B484-6C9CC7AB3E2E}
  9
$VERSIONGUID
  2
{FAEB1C32-E019-11D5-929B-00C0DF256EC4}
  9
$EXTNAMES
290
     1
  9
$PSVPSCALE
 40
0.0
  9
$OLESTARTUP
290
     0
  0
ENDSEC
  0
SECTION
  2
CLASSES
  0
CLASS
  1
ACDBDICTIONARYWDFLT
  2
AcDbDictionaryWithDefault
  3
ObjectDBX Classes
 90
        0
280
     0
281
     0
  0
CLASS
  1
VISUALSTYLE
  2
AcDbVisualStyle
  3
ObjectDBX Classes
 90
     4095
280
     0
281
     0
  0
CLASS
  1
TABLESTYLE
  2
AcDbTableStyle
  3
ObjectDBX Classes
 90
     4095
280
     0
281
     0
  0
CLASS
  1
DICTIONARYVAR
  2
AcDbDictionaryVar
  3
ObjectDBX Classes
 90
        0
280
     0
281
     0
  0
CLASS
  1
SCALE
  2
AcDbScale
  3
ObjectDBX Classes
 90
     1153
280
     0
281
     0
  0
CLASS
  1
CELLSTYLEMAP
  2
AcDbCellStyleMap
  3
ObjectDBX Classes
 90
     1152
280
     0
281
     0
  0
CLASS
  1
RASTERVARIABLES
  2
AcDbRasterVariables
  3
ISM
 90
        0
280
     0
281
     0
  0
CLASS
  1
MATERIAL
  2
AcDbMaterial
  3
ObjectDBX Classes
 90
     1153
280
     0
281
     0
  0
CLASS
  1
SUN
  2
AcDbSun
  3
SCENEOE
 90
     1153
280
     0
281
     0
  0
CLASS
  1
MLEADERSTYLE
  2
AcDbMLeaderStyle
  3
ACDB_MLEADERSTYLE_CLASS
 90
     4095
280
     0
281
     0
  0
CLASS
  1
SORTENTSTABLE
  2
AcDbSortentsTable
  3
ObjectDBX Classes
 90
        0
280
     0
281
     0
  0
CLASS
  1
DIMASSOC
  2
AcDbDimAssoc
  3
"AcDbDimAssoc|Product Desc:     AcDim ARX App For Dimension|Company:          Autodesk, Inc.|WEB Address:      www.autodesk.com"
 90
        0
280
     0
281
     0
  0
CLASS
  1
ACDBPLACEHOLDER
  2
AcDbPlaceHolder
  3
ObjectDBX Classes
 90
        0
280
     0
281
     0
  0
CLASS
  1
LAYOUT
  2
AcDbLayout
  3
ObjectDBX Classes
 90
        0
280
     0
281
     0
  0
ENDSEC
  0
SECTION
  2
TABLES
  0
TABLE
  2
VPORT
  5
8
330
0
100
AcDbSymbolTable
 70
     1
  0
VPORT
  5
29
330
8
100
AcDbSymbolTableRecord
100
AcDbViewportTableRecord
  2
*Active
 70
     0
 10
0.0
 20
0.0
 11
1.0
 21
1.0
 12
424.8727278504851
 22
315.0726086900728
 13
0.0
 23
0.0
 14
10.0
 24
10.0
 15
10.0
 25
10.0
 16
0.0
 26
0.0
 36
1.0
 17
-134.1869158878503
 27
0.0
 37
0.0
 40
1175.537109375001
 41
2.064295485636115
 42
50.0
 43
0.0
 44
0.0
 50
0.0
 51
0.0
 71
    16
 72
  1000
 73
     1
 74
     3
 75
     0
 76
     0
 77
     0
 78
     0
281
     0
 65
     1
110
0.0
120
0.0
130
0.0
111
1.0
121
0.0
131
0.0
112
0.0
122
1.0
132
0.0
 79
     0
146
0.0
  0
ENDTAB
  0
TABLE
  2
LTYPE
  5
5
330
0
100
AcDbSymbolTable
 70
     2
  0
LTYPE
  5
14
330
5
100
AcDbSymbolTableRecord
100
AcDbLinetypeTableRecord
  2
ByBlock
 70
     0
  3

 72
    65
 73
     0
 40
0.0
  0
LTYPE
  5
15
330
5
100
AcDbSymbolTableRecord
100
AcDbLinetypeTableRecord
  2
ByLayer
 70
     0
  3

 72
    65
 73
     0
 40
0.0
  0
LTYPE
  5
16
330
5
100
AcDbSymbolTableRecord
100
AcDbLinetypeTableRecord
  2
Continuous
 70
     0
  3
Solid line
 72
    65
 73
     0
 40
0.0
  0
LTYPE
  5
C3
330
5
100
AcDbSymbolTableRecord
100
AcDbLinetypeTableRecord
  2
PHANTOM2
 70
     0
  3
Phantom (.5x) ___ _ _ ___ _ _ ___ _ _ ___ _ _
 72
    65
 73
     6
 40
31.75
 49
15.875
 74
     0
 49
-3.175
 74
     0
 49
3.175
 74
     0
 49
-3.175
 74
     0
 49
3.175
 74
     0
 49
-3.175
 74
     0
  0
ENDTAB
  0
TABLE
  2
LAYER
  5
2
102
{ACAD_XDICTIONARY
360
148
102
}
330
0
100
AcDbSymbolTable
 70
     5
  0
LAYER
  5
10
330
2
100
AcDbSymbolTableRecord
100
AcDbLayerTableRecord
  2
0
 70
     0
 62
     7
  6
Continuous
370
    -3
390
F
  0
LAYER
  5
BE
330
2
100
AcDbSymbolTableRecord
100
AcDbLayerTableRecord
  2
Defpoints
 70
     0
 62
     7
  6
Continuous
290
     0
370
    -3
390
F
  0
LAYER
  5
BF
330
2
100
AcDbSymbolTableRecord
100
AcDbLayerTableRecord
  2
LAY_OUT
 70
     0
 62
     7
  6
Continuous
370
    -3
390
F
  0
LAYER
  5
C1
330
2
100
AcDbSymbolTableRecord
100
AcDbLayerTableRecord
  2
BASE
 70
     0
 62
     7
  6
Continuous
370
    -3
390
F
  0
LAYER
  5
C2
330
2
100
AcDbSymbolTableRecord
100
AcDbLayerTableRecord
  2
AVBL_AREA
 70
     0
 62
     2
  6
Continuous
370
    -3
390
F
  0
ENDTAB
  0
TABLE
  2
STYLE
  5
3
330
0
100
AcDbSymbolTable
 70
     2
  0
STYLE
  5
11
330
3
100
AcDbSymbolTableRecord
100
AcDbTextStyleTableRecord
  2
Standard
 70
     0
 40
0.0
 41
1.0
 50
0.0
 71
     0
 42
2.5
  3
arial.ttf
  4

1001
ACAD
1000
Arial
1071
        0
  0
STYLE
  5
B8
330
3
100
AcDbSymbolTableRecord
100
AcDbTextStyleTableRecord
  2
Annotative
 70
     0
 40
0.0
 41
1.0
 50
0.0
 71
     0
 42
2.5
  3
arial.ttf
  4

1001
ACAD
1000
Arial
1071
        0
1001
AcadAnnotative
1000
AnnotativeData
1002
{
1070
     1
1070
     1
1002
}
  0
ENDTAB
  0
TABLE
  2
VIEW
  5
6
330
0
100
AcDbSymbolTable
 70
     0
  0
ENDTAB
  0
TABLE
  2
UCS
  5
7
330
0
100
AcDbSymbolTable
 70
     0
  0
ENDTAB
  0
TABLE
  2
APPID
  5
9
330
0
100
AcDbSymbolTable
 70
     2
  0
APPID
  5
12
330
9
100
AcDbSymbolTableRecord
100
AcDbRegAppTableRecord
  2
ACAD
 70
     0
  0
APPID
  5
B9
330
9
100
AcDbSymbolTableRecord
100
AcDbRegAppTableRecord
  2
AcadAnnotative
 70
     0
  0
ENDTAB
  0
TABLE
  2
DIMSTYLE
  5
A
330
0
100
AcDbSymbolTable
 70
     3
100
AcDbDimStyleTable
  0
DIMSTYLE
105
27
330
A
100
AcDbSymbolTableRecord
100
AcDbDimStyleTableRecord
  2
ISO-25
 70
     0
 41
2.5
 42
0.625
 43
3.75
 44
1.25
 73
     0
 74
     0
 77
     1
 78
     8
140
2.5
141
2.5
143
0.03937007874016
147
0.625
171
     3
172
     1
178
     0
271
     2
272
     2
274
     3
278
    44
283
     0
284
     8
340
11
  0
DIMSTYLE
105
BA
330
A
100
AcDbSymbolTableRecord
100
AcDbDimStyleTableRecord
  2
Annotative
 70
     0
 40
0.0
 41
2.5
 42
0.625
 43
3.75
 44
1.25
 73
     0
 74
     0
 77
     1
 78
     8
140
2.5
141
2.5
143
0.03937007874016
147
0.625
171
     3
172
     1
178
     0
271
     2
272
     2
274
     3
278
    44
283
     0
284
     8
340
11
1001
AcadAnnotative
1000
AnnotativeData
1002
{
1070
     1
1070
     1
1002
}
  0
DIMSTYLE
105
C4
102
{ACAD_REACTORS
330
F9
330
10A
330
11A
330
12E
330
13B
330
15E
330
169
330
16A
330
1BC
102
}
330
A
100
AcDbSymbolTableRecord
100
AcDbDimStyleTableRecord
  2
STANDARD
 70
     0
 40
0.0
 41
10.0
 42
0.0
 44
6.0
 73
     0
 74
     0
 77
     1
 78
     8
140
16.0
141
10.0
147
3.0
172
     1
178
     0
271
     2
272
     2
284
     8
288
     1
340
11
  0
ENDTAB
  0
TABLE
  2
BLOCK_RECORD
  5
1
330
0
100
AcDbSymbolTable
 70
    15
  0
BLOCK_RECORD
  5
1F
330
1
100
AcDbSymbolTableRecord
100
AcDbBlockTableRecord
  2
*Model_Space
340
22
  0
BLOCK_RECORD
  5
1B
330
1
100
AcDbSymbolTableRecord
100
AcDbBlockTableRecord
  2
*Paper_Space
340
1E
  0
BLOCK_RECORD
  5
23
330
1
100
AcDbSymbolTableRecord
100
AcDbBlockTableRecord
  2
*Paper_Space0
340
26
  0
BLOCK_RECORD
  5
FA
330
1
100
AcDbSymbolTableRecord
100
AcDbBlockTableRecord
  2
*D2
340
0
  0
BLOCK_RECORD
  5
10B
330
1
100
AcDbSymbolTableRecord
100
AcDbBlockTableRecord
  2
*D3
340
0
  0
BLOCK_RECORD
  5
11B
330
1
100
AcDbSymbolTableRecord
100
AcDbBlockTableRecord
  2
*D4
340
0
  0
BLOCK_RECORD
  5
12F
330
1
100
AcDbSymbolTableRecord
100
AcDbBlockTableRecord
  2
*D5
340
0
  0
BLOCK_RECORD
  5
13C
330
1
100
AcDbSymbolTableRecord
100
AcDbBlockTableRecord
  2
*D6
340
0
  0
BLOCK_RECORD
  5
16B
330
1
100
AcDbSymbolTableRecord
100
AcDbBlockTableRecord
  2
*D7
340
0
  0
BLOCK_RECORD
  5
177
330
1
100
AcDbSymbolTableRecord
100
AcDbBlockTableRecord
  2
*D8
340
0
  0
BLOCK_RECORD
  5
186
330
1
100
AcDbSymbolTableRecord
100
AcDbBlockTableRecord
  2
*D9
340
0
  0
BLOCK_RECORD
  5
195
330
1
100
AcDbSymbolTableRecord
100
AcDbBlockTableRecord
  2
*D10
340
0
  0
BLOCK_RECORD
  5
1A1
330
1
100
AcDbSymbolTableRecord
100
AcDbBlockTableRecord
  2
*D11
340
0
  0
BLOCK_RECORD
  5
1B0
330
1
100
AcDbSymbolTableRecord
100
AcDbBlockTableRecord
  2
*D12
340
0
  0
BLOCK_RECORD
  5
1BD
330
1
100
AcDbSymbolTableRecord
100
AcDbBlockTableRecord
  2
*D13
340
0
  0
ENDTAB
  0
ENDSEC
  0
SECTION
  2
BLOCKS
  0
BLOCK
  5
20
330
1F
100
AcDbEntity
  8
0
100
AcDbBlockBegin
  2
*Model_Space
 70
     0
 10
0.0
 20
0.0
 30
0.0
  3
*Model_Space
  1

  0
ENDBLK
  5
21
330
1F
100
AcDbEntity
  8
0
100
AcDbBlockEnd
  0
BLOCK
  5
1C
330
1B
100
AcDbEntity
 67
     1
  8
0
100
AcDbBlockBegin
  2
*Paper_Space
 70
     0
 10
0.0
 20
0.0
 30
0.0
  3
*Paper_Space
  1

  0
ENDBLK
  5
1D
330
1B
100
AcDbEntity
 67
     1
  8
0
100
AcDbBlockEnd
  0
BLOCK
  5
24
330
23
100
AcDbEntity
  8
0
100
AcDbBlockBegin
  2
*Paper_Space0
 70
     0
 10
0.0
 20
0.0
 30
0.0
  3
*Paper_Space0
  1

  0
ENDBLK
  5
25
330
23
100
AcDbEntity
  8
0
100
AcDbBlockEnd
  0
BLOCK
  5
FB
330
FA
100
AcDbEntity
  8
0
100
AcDbBlockBegin
  2
*D2
 70
     1
 10
0.0
 20
0.0
 30
0.0
  3
*D2
  1

  0
LINE
  5
FC
330
FA
100
AcDbEntity
  8
LAY_OUT
 62
     0
370
    -2
100
AcDbLine
 10
92.5
 20
818.0924902333285
 30
0.0
 11
92.5
 21
951.8344597619284
 31
0.0
  0
LINE
  5
FD
330
FA
100
AcDbEntity
  8
LAY_OUT
 62
     0
370
    -2
100
AcDbLine
 10
472.5
 20
818.0924902333285
 30
0.0
 11
472.5
 21
951.8344597619284
 31
0.0
  0
LINE
  5
FE
330
FA
100
AcDbEntity
  8
LAY_OUT
 62
     0
370
    -2
100
AcDbLine
 10
102.5
 20
945.8344597619284
 30
0.0
 11
462.5
 21
945.8344597619284
 31
0.0
  0
SOLID
  5
FF
330
FA
100
AcDbEntity
  8
LAY_OUT
 62
     0
100
AcDbTrace
 10
102.5
 20
947.5011264285951
 30
0.0
 11
102.5
 21
944.1677930952618
 31
0.0
 12
92.5
 22
945.8344597619284
 32
0.0
 13
92.5
 23
945.8344597619284
 33
0.0
  0
SOLID
  5
100
330
FA
100
AcDbEntity
  8
LAY_OUT
 62
     0
100
AcDbTrace
 10
462.5
 20
944.1677930952618
 30
0.0
 11
462.5
 21
947.5011264285951
 31
0.0
 12
472.5
 22
945.8344597619284
 32
0.0
 13
472.5
 23
945.8344597619284
 33
0.0
  0
MTEXT
  5
101
330
FA
100
AcDbEntity
  8
LAY_OUT
 62
     0
100
AcDbMText
 10
277.1212130092847
 20
957.0024597619284
 30
0.0
 40
16.0
 41
0.0
 71
     5
 72
     1
  1
\A1;380
 73
     1
 44
1.0
  0
POINT
  5
102
330
FA
100
AcDbEntity
  8
Defpoints
 62
     0
100
AcDbPoint
 10
92.5
 20
818.0924902333285
 30
0.0
  0
POINT
  5
103
330
FA
100
AcDbEntity
  8
Defpoints
 62
     0
100
AcDbPoint
 10
472.5
 20
818.0924902333285
 30
0.0
  0
POINT
  5
104
330
FA
100
AcDbEntity
  8
Defpoints
 62
     0
100
AcDbPoint
 10
472.5
 20
945.8344597619284
 30
0.0
  0
ENDBLK
  5
105
330
FA
100
AcDbEntity
  8
0
100
AcDbBlockEnd
  0
BLOCK
  5
10C
330
10B
100
AcDbEntity
  8
0
100
AcDbBlockBegin
  2
*D3
 70
     1
 10
0.0
 20
0.0
 30
0.0
  3
*D3
  1

  0
LINE
  5
10D
330
10B
100
AcDbEntity
  8
LAY_OUT
 62
     0
370
    -2
100
AcDbLine
 10
107.0782458015521
 20
732.9293914621207
 30
0.0
 11
107.0782458015521
 21
792.4089992356949
 31
0.0
  0
LINE
  5
10E
330
10B
100
AcDbEntity
  8
LAY_OUT
 62
     0
370
    -2
100
AcDbLine
 10
92.5
 20
732.7709430447389
 30
0.0
 11
92.5
 21
792.4089992356949
 31
0.0
  0
LINE
  5
10F
330
10B
100
AcDbEntity
  8
LAY_OUT
 62
     0
370
    -2
100
AcDbLine
 10
92.5
 20
786.4089992356949
 30
0.0
 11
14.036
 21
786.4089992356949
 31
0.0
  0
LINE
  5
110
330
10B
100
AcDbEntity
  8
LAY_OUT
 62
     0
370
    -2
100
AcDbLine
 10
107.0782458015521
 20
786.4089992356949
 30
0.0
 11
92.5
 21
786.4089992356949
 31
0.0
  0
LINE
  5
111
330
10B
100
AcDbEntity
  8
LAY_OUT
 62
     0
370
    -2
100
AcDbLine
 10
117.0782458015521
 20
786.4089992356949
 30
0.0
 11
127.0782458015521
 21
786.4089992356949
 31
0.0
  0
LINE
  5
112
330
10B
100
AcDbEntity
  8
LAY_OUT
 62
     0
370
    -2
100
AcDbLine
 10
82.5
 20
786.4089992356949
 30
0.0
 11
72.5
 21
786.4089992356949
 31
0.0
  0
SOLID
  5
113
330
10B
100
AcDbEntity
  8
LAY_OUT
 62
     0
100
AcDbTrace
 10
117.0782458015521
 20
788.0756659023615
 30
0.0
 11
117.0782458015521
 21
784.7423325690282
 31
0.0
 12
107.0782458015521
 22
786.4089992356949
 32
0.0
 13
107.0782458015521
 23
786.4089992356949
 33
0.0
  0
SOLID
  5
114
330
10B
100
AcDbEntity
  8
LAY_OUT
 62
     0
100
AcDbTrace
 10
82.5
 20
784.7423325690282
 30
0.0
 11
82.5
 21
788.0756659023615
 31
0.0
 12
92.5
 22
786.4089992356949
 32
0.0
 13
92.5
 23
786.4089992356949
 33
0.0
  0
MTEXT
  5
115
330
10B
100
AcDbEntity
  8
LAY_OUT
 62
     0
100
AcDbMText
 10
43.268
 20
797.5769992356949
 30
0.0
 40
16.0
 41
0.0
 71
     5
 72
     1
  1
\A1;14.58
 73
     1
 44
1.0
  0
POINT
  5
116
330
10B
100
AcDbEntity
  8
Defpoints
 62
     0
100
AcDbPoint
 10
107.0782458015521
 20
732.9293914621207
 30
0.0
  0
POINT
  5
117
330
10B
100
AcDbEntity
  8
Defpoints
 62
     0
100
AcDbPoint
 10
92.5
 20
732.7709430447389
 30
0.0
  0
POINT
  5
118
330
10B
100
AcDbEntity
  8
Defpoints
 62
     0
100
AcDbPoint
 10
92.5
 20
786.4089992356949
 30
0.0
  0
ENDBLK
  5
119
330
10B
100
AcDbEntity
  8
0
100
AcDbBlockEnd
  0
BLOCK
  5
11C
330
11B
100
AcDbEntity
  8
0
100
AcDbBlockBegin
  2
*D4
 70
     1
 10
0.0
 20
0.0
 30
0.0
  3
*D4
  1

  0
LINE
  5
11D
330
11B
100
AcDbEntity
  8
LAY_OUT
 62
     0
370
    -2
100
AcDbLine
 10
457.9634958947445
 20
646.7984631745034
 30
0.0
 11
457.9634958947445
 21
679.9436862668313
 31
0.0
  0
LINE
  5
11E
330
11B
100
AcDbEntity
  8
LAY_OUT
 62
     0
370
    -2
100
AcDbLine
 10
472.5
 20
646.7984631745034
 30
0.0
 11
472.5
 21
679.9436862668313
 31
0.0
  0
LINE
  5
11F
330
11B
100
AcDbEntity
  8
LAY_OUT
 62
     0
370
    -2
100
AcDbLine
 10
472.5
 20
673.9436862668313
 30
0.0
 11
550.8679999999999
 21
673.9436862668313
 31
0.0
  0
LINE
  5
120
330
11B
100
AcDbEntity
  8
LAY_OUT
 62
     0
370
    -2
100
AcDbLine
 10
457.9634958947445
 20
673.9436862668313
 30
0.0
 11
472.5
 21
673.9436862668313
 31
0.0
  0
LINE
  5
121
330
11B
100
AcDbEntity
  8
LAY_OUT
 62
     0
370
    -2
100
AcDbLine
 10
447.9634958947445
 20
673.9436862668313
 30
0.0
 11
437.9634958947445
 21
673.9436862668313
 31
0.0
  0
LINE
  5
122
330
11B
100
AcDbEntity
  8
LAY_OUT
 62
     0
370
    -2
100
AcDbLine
 10
482.5
 20
673.9436862668313
 30
0.0
 11
492.5
 21
673.9436862668313
 31
0.0
  0
SOLID
  5
123
330
11B
100
AcDbEntity
  8
LAY_OUT
 62
     0
100
AcDbTrace
 10
447.9634958947445
 20
672.2770196001646
 30
0.0
 11
447.9634958947445
 21
675.6103529334979
 31
0.0
 12
457.9634958947445
 22
673.9436862668313
 32
0.0
 13
457.9634958947445
 23
673.9436862668313
 33
0.0
  0
SOLID
  5
124
330
11B
100
AcDbEntity
  8
LAY_OUT
 62
     0
100
AcDbTrace
 10
482.5
 20
675.6103529334979
 30
0.0
 11
482.5
 21
672.2770196001646
 31
0.0
 12
472.5
 22
673.9436862668313
 32
0.0
 13
472.5
 23
673.9436862668313
 33
0.0
  0
MTEXT
  5
125
330
11B
100
AcDbEntity
  8
LAY_OUT
 62
     0
100
AcDbMText
 10
521.684
 20
685.1116862668313
 30
0.0
 40
16.0
 41
0.0
 71
     5
 72
     1
  1
\A1;14.54
 73
     1
 44
1.0
  0
POINT
  5
126
330
11B
100
AcDbEntity
  8
Defpoints
 62
     0
100
AcDbPoint
 10
457.9634958947445
 20
646.7984631745034
 30
0.0
  0
POINT
  5
127
330
11B
100
AcDbEntity
  8
Defpoints
 62
     0
100
AcDbPoint
 10
472.5
 20
646.7984631745034
 30
0.0
  0
POINT
  5
128
330
11B
100
AcDbEntity
  8
Defpoints
 62
     0
100
AcDbPoint
 10
472.5
 20
673.9436862668313
 30
0.0
  0
ENDBLK
  5
129
330
11B
100
AcDbEntity
  8
0
100
AcDbBlockEnd
  0
BLOCK
  5
130
330
12F
100
AcDbEntity
  8
0
100
AcDbBlockBegin
  2
*D5
 70
     1
 10
0.0
 20
0.0
 30
0.0
  3
*D5
  1

  0
LINE
  5
131
330
12F
100
AcDbEntity
  8
LAY_OUT
 62
     0
370
    -2
100
AcDbLine
 10
404.5357882188737
 20
706.2743631033379
 30
0.0
 11
652.2908887075495
 21
706.2743631033379
 31
0.0
  0
LINE
  5
132
330
12F
100
AcDbEntity
  8
LAY_OUT
 62
     0
370
    -2
100
AcDbLine
 10
404.5357882188734
 20
346.2743631033379
 30
0.0
 11
652.2908887075495
 21
346.2743631033379
 31
0.0
  0
LINE
  5
133
330
12F
100
AcDbEntity
  8
LAY_OUT
 62
     0
370
    -2
100
AcDbLine
 10
646.2908887075495
 20
696.2743631033379
 30
0.0
 11
646.2908887075495
 21
356.2743631033379
 31
0.0
  0
SOLID
  5
134
330
12F
100
AcDbEntity
  8
LAY_OUT
 62
     0
100
AcDbTrace
 10
647.9575553742161
 20
696.2743631033379
 30
0.0
 11
644.6242220408828
 21
696.2743631033379
 31
0.0
 12
646.2908887075495
 22
706.2743631033379
 32
0.0
 13
646.2908887075495
 23
706.2743631033379
 33
0.0
  0
SOLID
  5
135
330
12F
100
AcDbEntity
  8
LAY_OUT
 62
     0
100
AcDbTrace
 10
644.6242220408828
 20
356.2743631033379
 30
0.0
 11
647.9575553742161
 21
356.2743631033379
 31
0.0
 12
646.2908887075495
 22
346.2743631033379
 32
0.0
 13
646.2908887075495
 23
346.2743631033379
 33
0.0
  0
MTEXT
  5
136
330
12F
100
AcDbEntity
  8
LAY_OUT
 62
     0
100
AcDbMText
 10
635.1228887075495
 20
524.0138449724438
 30
0.0
 40
16.0
 41
0.0
 71
     5
 72
     1
  1
\A1;360
 11
0.0
 21
1.0
 31
0.0
 73
     1
 44
1.0
  0
POINT
  5
137
330
12F
100
AcDbEntity
  8
Defpoints
 62
     0
100
AcDbPoint
 10
404.5357882188737
 20
706.2743631033379
 30
0.0
  0
POINT
  5
138
330
12F
100
AcDbEntity
  8
Defpoints
 62
     0
100
AcDbPoint
 10
404.5357882188734
 20
346.2743631033379
 30
0.0
  0
POINT
  5
139
330
12F
100
AcDbEntity
  8
Defpoints
 62
     0
100
AcDbPoint
 10
646.2908887075495
 20
346.2743631033379
 30
0.0
  0
ENDBLK
  5
13A
330
12F
100
AcDbEntity
  8
0
100
AcDbBlockEnd
  0
BLOCK
  5
13D
330
13C
100
AcDbEntity
  8
0
100
AcDbBlockBegin
  2
*D6
 70
     1
 10
0.0
 20
0.0
 30
0.0
  3
*D6
  1

  0
LINE
  5
13E
330
13C
100
AcDbEntity
  8
LAY_OUT
 62
     0
370
    -2
100
AcDbLine
 10
107.0978537814335
 20
555.5384202035996
 30
0.0
 11
107.0978537814335
 21
903.902693606658
 31
0.0
  0
LINE
  5
13F
330
13C
100
AcDbEntity
  8
LAY_OUT
 62
     0
370
    -2
100
AcDbLine
 10
458.0793075198844
 20
476.0321425164116
 30
0.0
 11
458.0793075198844
 21
903.902693606658
 31
0.0
  0
LINE
  5
140
330
13C
100
AcDbEntity
  8
LAY_OUT
 62
     0
370
    -2
100
AcDbLine
 10
117.0978537814335
 20
897.902693606658
 30
0.0
 11
448.0793075198844
 21
897.902693606658
 31
0.0
  0
SOLID
  5
141
330
13C
100
AcDbEntity
  8
LAY_OUT
 62
     0
100
AcDbTrace
 10
117.0978537814335
 20
899.5693602733246
 30
0.0
 11
117.0978537814335
 21
896.2360269399913
 31
0.0
 12
107.0978537814335
 22
897.902693606658
 32
0.0
 13
107.0978537814335
 23
897.902693606658
 33
0.0
  0
SOLID
  5
142
330
13C
100
AcDbEntity
  8
LAY_OUT
 62
     0
100
AcDbTrace
 10
448.0793075198844
 20
896.2360269399913
 30
0.0
 11
448.0793075198844
 21
899.5693602733246
 31
0.0
 12
458.0793075198844
 22
897.902693606658
 32
0.0
 13
458.0793075198844
 23
897.902693606658
 33
0.0
  0
MTEXT
  5
143
330
13C
100
AcDbEntity
  8
LAY_OUT
 62
     0
100
AcDbMText
 10
277.7290399673947
 20
909.070693606658
 30
0.0
 40
16.0
 41
0.0
 71
     5
 72
     1
  1
\A1;350.98
 73
     1
 44
1.0
  0
POINT
  5
144
330
13C
100
AcDbEntity
  8
Defpoints
 62
     0
100
AcDbPoint
 10
107.0978537814335
 20
555.5384202035996
 30
0.0
  0
POINT
  5
145
330
13C
100
AcDbEntity
  8
Defpoints
 62
     0
100
AcDbPoint
 10
458.0793075198844
 20
476.0321425164116
 30
0.0
  0
POINT
  5
146
330
13C
100
AcDbEntity
  8
Defpoints
 62
     0
100
AcDbPoint
 10
458.0793075198844
 20
897.902693606658
 30
0.0
  0
ENDBLK
  5
147
330
13C
100
AcDbEntity
  8
0
100
AcDbBlockEnd
  0
BLOCK
  5
16C
330
16B
100
AcDbEntity
  8
0
100
AcDbBlockBegin
  2
*D7
 70
     1
 10
0.0
 20
0.0
 30
0.0
  3
*D7
  1

  0
LINE
  5
16E
330
16B
100
AcDbEntity
  8
LAY_OUT
 62
     0
370
    -2
100
AcDbLine
 10
103.1174885845052
 20
485.7660681726344
 30
0.0
 11
103.1174885845052
 21
619.5080377012346
 31
0.0
  0
LINE
  5
16F
330
16B
100
AcDbEntity
  8
LAY_OUT
 62
     0
370
    -2
100
AcDbLine
 10
483.1174885845052
 20
485.7660681726344
 30
0.0
 11
483.1174885845052
 21
619.5080377012346
 31
0.0
  0
LINE
  5
170
330
16B
100
AcDbEntity
  8
LAY_OUT
 62
     0
370
    -2
100
AcDbLine
 10
113.1174885845052
 20
613.5080377012346
 30
0.0
 11
473.1174885845052
 21
613.5080377012346
 31
0.0
  0
SOLID
  5
171
330
16B
100
AcDbEntity
  8
LAY_OUT
 62
     0
100
AcDbTrace
 10
113.1174885845052
 20
615.1747043679012
 30
0.0
 11
113.1174885845052
 21
611.8413710345679
 31
0.0
 12
103.1174885845052
 22
613.5080377012346
 32
0.0
 13
103.1174885845052
 23
613.5080377012346
 33
0.0
  0
SOLID
  5
172
330
16B
100
AcDbEntity
  8
LAY_OUT
 62
     0
100
AcDbTrace
 10
473.1174885845052
 20
611.8413710345679
 30
0.0
 11
473.1174885845052
 21
615.1747043679012
 31
0.0
 12
483.1174885845052
 22
613.5080377012346
 32
0.0
 13
483.1174885845052
 23
613.5080377012346
 33
0.0
  0
MTEXT
  5
173
330
16B
100
AcDbEntity
  8
LAY_OUT
 62
     0
100
AcDbMText
 10
287.7387015937899
 20
624.6760377012346
 30
0.0
 40
16.0
 41
0.0
 71
     5
 72
     1
  1
\A1;380
 73
     1
 44
1.0
  0
POINT
  5
174
330
16B
100
AcDbEntity
  8
Defpoints
 62
     0
100
AcDbPoint
 10
103.1174885845052
 20
485.7660681726344
 30
0.0
  0
POINT
  5
175
330
16B
100
AcDbEntity
  8
Defpoints
 62
     0
100
AcDbPoint
 10
483.1174885845052
 20
485.7660681726344
 30
0.0
  0
POINT
  5
176
330
16B
100
AcDbEntity
  8
Defpoints
 62
     0
100
AcDbPoint
 10
483.1174885845052
 20
613.5080377012346
 30
0.0
  0
ENDBLK
  5
16D
330
16B
100
AcDbEntity
  8
0
100
AcDbBlockEnd
  0
BLOCK
  5
178
330
177
100
AcDbEntity
  8
0
100
AcDbBlockBegin
  2
*D8
 70
     1
 10
0.0
 20
0.0
 30
0.0
  3
*D8
  1

  0
LINE
  5
17A
330
177
100
AcDbEntity
  8
LAY_OUT
 62
     0
370
    -2
100
AcDbLine
 10
117.6957343860573
 20
400.6029694014268
 30
0.0
 11
117.6957343860573
 21
460.0825771750009
 31
0.0
  0
LINE
  5
17B
330
177
100
AcDbEntity
  8
LAY_OUT
 62
     0
370
    -2
100
AcDbLine
 10
103.1174885845052
 20
400.444520984045
 30
0.0
 11
103.1174885845052
 21
460.0825771750009
 31
0.0
  0
LINE
  5
17C
330
177
100
AcDbEntity
  8
LAY_OUT
 62
     0
370
    -2
100
AcDbLine
 10
103.1174885845052
 20
454.0825771750009
 30
0.0
 11
24.65348858450517
 21
454.0825771750009
 31
0.0
  0
LINE
  5
17D
330
177
100
AcDbEntity
  8
LAY_OUT
 62
     0
370
    -2
100
AcDbLine
 10
117.6957343860573
 20
454.0825771750009
 30
0.0
 11
103.1174885845052
 21
454.0825771750009
 31
0.0
  0
LINE
  5
17E
330
177
100
AcDbEntity
  8
LAY_OUT
 62
     0
370
    -2
100
AcDbLine
 10
127.6957343860573
 20
454.0825771750009
 30
0.0
 11
137.6957343860573
 21
454.0825771750009
 31
0.0
  0
LINE
  5
17F
330
177
100
AcDbEntity
  8
LAY_OUT
 62
     0
370
    -2
100
AcDbLine
 10
93.11748858450517
 20
454.0825771750009
 30
0.0
 11
83.11748858450517
 21
454.0825771750009
 31
0.0
  0
SOLID
  5
180
330
177
100
AcDbEntity
  8
LAY_OUT
 62
     0
100
AcDbTrace
 10
127.6957343860573
 20
455.7492438416676
 30
0.0
 11
127.6957343860573
 21
452.4159105083343
 31
0.0
 12
117.6957343860573
 22
454.0825771750009
 32
0.0
 13
117.6957343860573
 23
454.0825771750009
 33
0.0
  0
SOLID
  5
181
330
177
100
AcDbEntity
  8
LAY_OUT
 62
     0
100
AcDbTrace
 10
93.11748858450517
 20
452.4159105083343
 30
0.0
 11
93.11748858450517
 21
455.7492438416676
 31
0.0
 12
103.1174885845052
 22
454.0825771750009
 32
0.0
 13
103.1174885845052
 23
454.0825771750009
 33
0.0
  0
MTEXT
  5
182
330
177
100
AcDbEntity
  8
LAY_OUT
 62
     0
100
AcDbMText
 10
53.88548858450517
 20
465.250577175001
 30
0.0
 40
16.0
 41
0.0
 71
     5
 72
     1
  1
\A1;14.58
 73
     1
 44
1.0
  0
POINT
  5
183
330
177
100
AcDbEntity
  8
Defpoints
 62
     0
100
AcDbPoint
 10
117.6957343860573
 20
400.6029694014268
 30
0.0
  0
POINT
  5
184
330
177
100
AcDbEntity
  8
Defpoints
 62
     0
100
AcDbPoint
 10
103.1174885845052
 20
400.444520984045
 30
0.0
  0
POINT
  5
185
330
177
100
AcDbEntity
  8
Defpoints
 62
     0
100
AcDbPoint
 10
103.1174885845052
 20
454.0825771750009
 30
0.0
  0
ENDBLK
  5
179
330
177
100
AcDbEntity
  8
0
100
AcDbBlockEnd
  0
BLOCK
  5
187
330
186
100
AcDbEntity
  8
0
100
AcDbBlockBegin
  2
*D9
 70
     1
 10
0.0
 20
0.0
 30
0.0
  3
*D9
  1

  0
LINE
  5
189
330
186
100
AcDbEntity
  8
LAY_OUT
 62
     0
370
    -2
100
AcDbLine
 10
468.5809844792497
 20
314.4720411138094
 30
0.0
 11
468.5809844792497
 21
347.6172642061373
 31
0.0
  0
LINE
  5
18A
330
186
100
AcDbEntity
  8
LAY_OUT
 62
     0
370
    -2
100
AcDbLine
 10
483.1174885845052
 20
314.4720411138094
 30
0.0
 11
483.1174885845052
 21
347.6172642061373
 31
0.0
  0
LINE
  5
18B
330
186
100
AcDbEntity
  8
LAY_OUT
 62
     0
370
    -2
100
AcDbLine
 10
483.1174885845052
 20
341.6172642061373
 30
0.0
 11
561.4854885845051
 21
341.6172642061373
 31
0.0
  0
LINE
  5
18C
330
186
100
AcDbEntity
  8
LAY_OUT
 62
     0
370
    -2
100
AcDbLine
 10
468.5809844792497
 20
341.6172642061373
 30
0.0
 11
483.1174885845052
 21
341.6172642061373
 31
0.0
  0
LINE
  5
18D
330
186
100
AcDbEntity
  8
LAY_OUT
 62
     0
370
    -2
100
AcDbLine
 10
458.5809844792497
 20
341.6172642061373
 30
0.0
 11
448.5809844792497
 21
341.6172642061373
 31
0.0
  0
LINE
  5
18E
330
186
100
AcDbEntity
  8
LAY_OUT
 62
     0
370
    -2
100
AcDbLine
 10
493.1174885845052
 20
341.6172642061373
 30
0.0
 11
503.1174885845052
 21
341.6172642061373
 31
0.0
  0
SOLID
  5
18F
330
186
100
AcDbEntity
  8
LAY_OUT
 62
     0
100
AcDbTrace
 10
458.5809844792497
 20
339.9505975394706
 30
0.0
 11
458.5809844792497
 21
343.283930872804
 31
0.0
 12
468.5809844792497
 22
341.6172642061373
 32
0.0
 13
468.5809844792497
 23
341.6172642061373
 33
0.0
  0
SOLID
  5
190
330
186
100
AcDbEntity
  8
LAY_OUT
 62
     0
100
AcDbTrace
 10
493.1174885845052
 20
343.283930872804
 30
0.0
 11
493.1174885845052
 21
339.9505975394706
 31
0.0
 12
483.1174885845052
 22
341.6172642061373
 32
0.0
 13
483.1174885845052
 23
341.6172642061373
 33
0.0
  0
MTEXT
  5
191
330
186
100
AcDbEntity
  8
LAY_OUT
 62
     0
100
AcDbMText
 10
532.3014885845051
 20
352.7852642061373
 30
0.0
 40
16.0
 41
0.0
 71
     5
 72
     1
  1
\A1;14.54
 73
     1
 44
1.0
  0
POINT
  5
192
330
186
100
AcDbEntity
  8
Defpoints
 62
     0
100
AcDbPoint
 10
468.5809844792497
 20
314.4720411138094
 30
0.0
  0
POINT
  5
193
330
186
100
AcDbEntity
  8
Defpoints
 62
     0
100
AcDbPoint
 10
483.1174885845052
 20
314.4720411138094
 30
0.0
  0
POINT
  5
194
330
186
100
AcDbEntity
  8
Defpoints
 62
     0
100
AcDbPoint
 10
483.1174885845052
 20
341.6172642061373
 30
0.0
  0
ENDBLK
  5
188
330
186
100
AcDbEntity
  8
0
100
AcDbBlockEnd
  0
BLOCK
  5
196
330
195
100
AcDbEntity
  8
0
100
AcDbBlockBegin
  2
*D10
 70
     1
 10
0.0
 20
0.0
 30
0.0
  3
*D10
  1

  0
LINE
  5
198
330
195
100
AcDbEntity
  8
LAY_OUT
 62
     0
370
    -2
100
AcDbLine
 10
415.1532768033788
 20
373.947941042644
 30
0.0
 11
662.9083772920546
 21
373.947941042644
 31
0.0
  0
LINE
  5
199
330
195
100
AcDbEntity
  8
LAY_OUT
 62
     0
370
    -2
100
AcDbLine
 10
415.1532768033786
 20
13.94794104264395
 30
0.0
 11
662.9083772920546
 21
13.94794104264395
 31
0.0
  0
LINE
  5
19A
330
195
100
AcDbEntity
  8
LAY_OUT
 62
     0
370
    -2
100
AcDbLine
 10
656.9083772920546
 20
363.947941042644
 30
0.0
 11
656.9083772920546
 21
23.94794104264395
 31
0.0
  0
SOLID
  5
19B
330
195
100
AcDbEntity
  8
LAY_OUT
 62
     0
100
AcDbTrace
 10
658.5750439587213
 20
363.947941042644
 30
0.0
 11
655.241710625388
 21
363.947941042644
 31
0.0
 12
656.9083772920546
 22
373.947941042644
 32
0.0
 13
656.9083772920546
 23
373.947941042644
 33
0.0
  0
SOLID
  5
19C
330
195
100
AcDbEntity
  8
LAY_OUT
 62
     0
100
AcDbTrace
 10
655.241710625388
 20
23.94794104264395
 30
0.0
 11
658.5750439587213
 21
23.94794104264395
 31
0.0
 12
656.9083772920546
 22
13.94794104264395
 32
0.0
 13
656.9083772920546
 23
13.94794104264395
 33
0.0
  0
MTEXT
  5
19D
330
195
100
AcDbEntity
  8
LAY_OUT
 62
     0
100
AcDbMText
 10
645.7403772920546
 20
191.6874229117499
 30
0.0
 40
16.0
 41
0.0
 71
     5
 72
     1
  1
\A1;360
 11
0.0
 21
1.0
 31
0.0
 73
     1
 44
1.0
  0
POINT
  5
19E
330
195
100
AcDbEntity
  8
Defpoints
 62
     0
100
AcDbPoint
 10
415.1532768033788
 20
373.947941042644
 30
0.0
  0
POINT
  5
19F
330
195
100
AcDbEntity
  8
Defpoints
 62
     0
100
AcDbPoint
 10
415.1532768033786
 20
13.94794104264395
 30
0.0
  0
POINT
  5
1A0
330
195
100
AcDbEntity
  8
Defpoints
 62
     0
100
AcDbPoint
 10
656.9083772920546
 20
13.94794104264393
 30
0.0
  0
ENDBLK
  5
197
330
195
100
AcDbEntity
  8
0
100
AcDbBlockEnd
  0
BLOCK
  5
1A2
330
1A1
100
AcDbEntity
  8
0
100
AcDbBlockBegin
  2
*D11
 70
     1
 10
0.0
 20
0.0
 30
0.0
  3
*D11
  1

  0
LINE
  5
1A4
330
1A1
100
AcDbEntity
  8
LAY_OUT
 62
     0
370
    -2
100
AcDbLine
 10
117.7153423659387
 20
223.2119981429056
 30
0.0
 11
117.7153423659387
 21
571.5762715459641
 31
0.0
  0
LINE
  5
1A5
330
1A1
100
AcDbEntity
  8
LAY_OUT
 62
     0
370
    -2
100
AcDbLine
 10
468.6967961043896
 20
143.7057204557176
 30
0.0
 11
468.6967961043896
 21
571.5762715459641
 31
0.0
  0
LINE
  5
1A6
330
1A1
100
AcDbEntity
  8
LAY_OUT
 62
     0
370
    -2
100
AcDbLine
 10
127.7153423659387
 20
565.5762715459641
 30
0.0
 11
458.6967961043896
 21
565.5762715459641
 31
0.0
  0
SOLID
  5
1A7
330
1A1
100
AcDbEntity
  8
LAY_OUT
 62
     0
100
AcDbTrace
 10
127.7153423659387
 20
567.2429382126307
 30
0.0
 11
127.7153423659387
 21
563.9096048792975
 31
0.0
 12
117.7153423659387
 22
565.5762715459641
 32
0.0
 13
117.7153423659387
 23
565.5762715459641
 33
0.0
  0
SOLID
  5
1A8
330
1A1
100
AcDbEntity
  8
LAY_OUT
 62
     0
100
AcDbTrace
 10
458.6967961043896
 20
563.9096048792975
 30
0.0
 11
458.6967961043896
 21
567.2429382126307
 31
0.0
 12
468.6967961043896
 22
565.5762715459641
 32
0.0
 13
468.6967961043896
 23
565.5762715459641
 33
0.0
  0
MTEXT
  5
1A9
330
1A1
100
AcDbEntity
  8
LAY_OUT
 62
     0
100
AcDbMText
 10
288.3465285518999
 20
576.7442715459641
 30
0.0
 40
16.0
 41
0.0
 71
     5
 72
     1
  1
\A1;350.98
 73
     1
 44
1.0
  0
POINT
  5
1AA
330
1A1
100
AcDbEntity
  8
Defpoints
 62
     0
100
AcDbPoint
 10
117.7153423659387
 20
223.2119981429056
 30
0.0
  0
POINT
  5
1AB
330
1A1
100
AcDbEntity
  8
Defpoints
 62
     0
100
AcDbPoint
 10
468.6967961043896
 20
143.7057204557176
 30
0.0
  0
POINT
  5
1AC
330
1A1
100
AcDbEntity
  8
Defpoints
 62
     0
100
AcDbPoint
 10
468.6967961043896
 20
565.5762715459641
 30
0.0
  0
ENDBLK
  5
1A3
330
1A1
100
AcDbEntity
  8
0
100
AcDbBlockEnd
  0
BLOCK
  5
1B1
330
1B0
100
AcDbEntity
  8
0
100
AcDbBlockBegin
  2
*D12
 70
     1
 10
0.0
 20
0.0
 30
0.0
  3
*D12
  1

  0
LINE
  5
1B3
330
1B0
100
AcDbEntity
  8
0
 62
     0
370
    -2
100
AcDbLine
 10
174.8225983236711
 20
462.7429749286411
 30
0.0
 11
38.20647028167711
 21
462.7429749286411
 31
0.0
  0
LINE
  5
1B4
330
1B0
100
AcDbEntity
  8
0
 62
     0
370
    -2
100
AcDbLine
 10
205.3318683814294
 20
116.3412110309833
 30
0.0
 11
38.20647028167708
 21
116.3412110309834
 31
0.0
  0
LINE
  5
1B5
330
1B0
100
AcDbEntity
  8
0
 62
     0
370
    -2
100
AcDbLine
 10
39.45647028167711
 20
460.2429749286411
 30
0.0
 11
39.45647028167708
 21
118.8412110309834
 31
0.0
  0
SOLID
  5
1B6
330
1B0
100
AcDbEntity
  8
0
 62
     0
100
AcDbTrace
 10
39.87313694834377
 20
460.2429749286411
 30
0.0
 11
39.03980361501044
 21
460.2429749286411
 31
0.0
 12
39.45647028167711
 22
462.7429749286411
 32
0.0
 13
39.45647028167711
 23
462.7429749286411
 33
0.0
  0
SOLID
  5
1B7
330
1B0
100
AcDbEntity
  8
0
 62
     0
100
AcDbTrace
 10
39.03980361501042
 20
118.8412110309834
 30
0.0
 11
39.87313694834375
 21
118.8412110309834
 31
0.0
 12
39.45647028167708
 22
116.3412110309834
 32
0.0
 13
39.45647028167708
 23
116.3412110309834
 33
0.0
  0
MTEXT
  5
1B8
330
1B0
100
AcDbEntity
  8
0
 62
     0
100
AcDbMText
 10
37.33022028167707
 20
289.5420929798123
 30
0.0
 40
2.5
 41
0.0
 71
     5
 72
     1
  1
346,4
 11
6.153629771671939E-17
 21
1.0
 31
0.0
 73
     1
 44
1.0
  0
POINT
  5
1B9
330
1B0
100
AcDbEntity
  8
Defpoints
 62
     0
100
AcDbPoint
 10
175.4475983236711
 20
462.7429749286411
 30
0.0
  0
POINT
  5
1BA
330
1B0
100
AcDbEntity
  8
Defpoints
 62
     0
100
AcDbPoint
 10
205.9568683814294
 20
116.3412110309833
 30
0.0
  0
POINT
  5
1BB
330
1B0
100
AcDbEntity
  8
Defpoints
 62
     0
100
AcDbPoint
 10
39.45647028167708
 20
116.3412110309834
 30
0.0
  0
ENDBLK
  5
1B2
330
1B0
100
AcDbEntity
  8
0
100
AcDbBlockEnd
  0
BLOCK
  5
1BE
330
1BD
100
AcDbEntity
  8
0
100
AcDbBlockBegin
  2
*D13
 70
     1
 10
0.0
 20
0.0
 30
0.0
  3
*D13
  1

  0
LINE
  5
1C0
330
1BD
100
AcDbEntity
  8
LAY_OUT
 62
     0
370
    -2
100
AcDbLine
 10
175.4475983236711
 20
462.7429749286411
 30
0.0
 11
36.73960385516149
 21
462.7429749286411
 31
0.0
  0
LINE
  5
1C1
330
1BD
100
AcDbEntity
  8
LAY_OUT
 62
     0
370
    -2
100
AcDbLine
 10
206.7305328140097
 20
116.3412110309833
 30
0.0
 11
36.73960385516147
 21
116.3412110309833
 31
0.0
  0
LINE
  5
1C2
330
1BD
100
AcDbEntity
  8
LAY_OUT
 62
     0
370
    -2
100
AcDbLine
 10
42.73960385516149
 20
452.7429749286411
 30
0.0
 11
42.73960385516147
 21
126.3412110309833
 31
0.0
  0
SOLID
  5
1C3
330
1BD
100
AcDbEntity
  8
LAY_OUT
 62
     0
100
AcDbTrace
 10
44.40627052182816
 20
452.7429749286411
 30
0.0
 11
41.07293718849483
 21
452.7429749286411
 31
0.0
 12
42.73960385516149
 22
462.7429749286411
 32
0.0
 13
42.73960385516149
 23
462.7429749286411
 33
0.0
  0
SOLID
  5
1C4
330
1BD
100
AcDbEntity
  8
LAY_OUT
 62
     0
100
AcDbTrace
 10
41.07293718849481
 20
126.3412110309833
 30
0.0
 11
44.40627052182813
 21
126.3412110309833
 31
0.0
 12
42.73960385516147
 22
116.3412110309833
 32
0.0
 13
42.73960385516147
 23
116.3412110309833
 33
0.0
  0
MTEXT
  5
1C5
330
1BD
100
AcDbEntity
  8
LAY_OUT
 62
     0
100
AcDbMText
 10
31.57160385516147
 20
278.2078246335578
 30
0.0
 40
16.0
 41
0.0
 71
     5
 72
     1
  1
\A1;346.4
 11
6.153629771671939E-17
 21
1.0
 31
0.0
 73
     1
 44
1.0
  0
POINT
  5
1C6
330
1BD
100
AcDbEntity
  8
Defpoints
 62
     0
100
AcDbPoint
 10
175.4475983236711
 20
462.7429749286411
 30
0.0
  0
POINT
  5
1C7
330
1BD
100
AcDbEntity
  8
Defpoints
 62
     0
100
AcDbPoint
 10
206.7305328140097
 20
116.3412110309833
 30
0.0
  0
POINT
  5
1C8
330
1BD
100
AcDbEntity
  8
Defpoints
 62
     0
100
AcDbPoint
 10
42.73960385516147
 20
116.3412110309834
 30
0.0
  0
ENDBLK
  5
1BF
330
1BD
100
AcDbEntity
  8
0
100
AcDbBlockEnd
  0
ENDSEC
  0
SECTION
  2
ENTITIES
  0
LWPOLYLINE
  5
14D
330
1F
100
AcDbEntity
  8
BASE
100
AcDbPolyline
 90
        4
 70
     1
 43
0.0
 10
10.61748858450517
 20
8.85143466296961
 10
575.6174885845052
 20
8.85143466296961
 10
575.6174885845052
 20
522.8514346629697
 10
10.61748858450517
 20
522.8514346629697
  0
POINT
  5
14E
330
1F
100
AcDbEntity
  8
BASE
100
AcDbPoint
 10
293.1174885845052
 20
265.8514346629696
 30
0.0
  0
LWPOLYLINE
  5
14F
330
1F
100
AcDbEntity
  8
AVBL_AREA
100
AcDbPolyline
 90
        4
 70
     1
 43
0.0
 10
13.71748858450519
 20
11.85143466296961
 10
572.5174885845051
 20
11.85143466296961
 10
572.5174885845051
 20
519.8514346629697
 10
13.71748858450519
 20
519.8514346629697
  0
CIRCLE
  5
150
330
1F
100
AcDbEntity
  8
BASE
100
AcDbCircle
 10
64.51748858450517
 20
494.4514346629696
 30
0.0
 40
7.5
  0
CIRCLE
  5
151
330
1F
100
AcDbEntity
  8
BASE
100
AcDbCircle
 10
331.1174885845052
 20
494.4514346629696
 30
0.0
 40
7.5
  0
CIRCLE
  5
152
330
1F
100
AcDbEntity
  8
BASE
100
AcDbCircle
 10
521.7174885845052
 20
494.4514346629696
 30
0.0
 40
7.5
  0
CIRCLE
  5
153
330
1F
100
AcDbEntity
  8
BASE
100
AcDbCircle
 10
64.51748858450517
 20
303.8514346629696
 30
0.0
 40
7.5
  0
CIRCLE
  5
154
330
1F
100
AcDbEntity
  8
BASE
 62
     7
100
AcDbCircle
 10
255.1174885845052
 20
303.8514346629696
 30
0.0
 40
7.5
  0
CIRCLE
  5
155
330
1F
100
AcDbEntity
  8
BASE
100
AcDbCircle
 10
331.1174885845052
 20
303.8514346629696
 30
0.0
 40
7.5
  0
CIRCLE
  5
156
330
1F
100
AcDbEntity
  8
BASE
100
AcDbCircle
 10
255.1174885845052
 20
227.8514346629696
 30
0.0
 40
7.5
  0
CIRCLE
  5
157
330
1F
100
AcDbEntity
  8
BASE
 62
     7
100
AcDbCircle
 10
331.1174885845052
 20
227.8514346629696
 30
0.0
 40
7.5
  0
CIRCLE
  5
158
330
1F
100
AcDbEntity
  8
BASE
100
AcDbCircle
 10
64.51748858450517
 20
37.25143466296959
 30
0.0
 40
7.5
  0
CIRCLE
  5
159
330
1F
100
AcDbEntity
  8
BASE
100
AcDbCircle
 10
255.1174885845052
 20
37.25143466296959
 30
0.0
 40
7.5
  0
CIRCLE
  5
15A
330
1F
100
AcDbEntity
  8
BASE
100
AcDbCircle
 10
521.7174885845052
 20
37.25143466296959
 30
0.0
 40
7.5
  0
CIRCLE
  5
15B
330
1F
100
AcDbEntity
  8
BASE
100
AcDbCircle
 10
521.7174885845052
 20
227.8514346629696
 30
0.0
 40
7.5
  0
LINE
  5
15C
330
1F
100
AcDbEntity
  8
LAY_OUT
  6
PHANTOM2
100
AcDbLine
 10
103.1174885845052
 20
485.7660681726344
 30
0.0
 11
103.1174885845052
 21
45.93680115330471
 31
0.0
  0
LINE
  5
15D
330
1F
100
AcDbEntity
  8
LAY_OUT
  6
PHANTOM2
100
AcDbLine
 10
483.1174885845052
 20
485.7660681726344
 30
0.0
 11
483.1174885845052
 21
45.93680115330471
 31
0.0
  0
DIMENSION
  5
15E
330
1F
100
AcDbEntity
  8
LAY_OUT
 62
     1
100
AcDbDimension
  2
*D7
 10
483.1174885845052
 20
613.5080377012346
 30
0.0
 11
287.7387015937899
 21
613.5080377012346
 31
0.0
 70
   160
 71
     5
 42
380.0
  3
STANDARD
100
AcDbAlignedDimension
 13
103.1174885845052
 23
485.7660681726344
 33
0.0
 14
483.1174885845052
 24
485.7660681726344
 34
0.0
100
AcDbRotatedDimension
1001
ACAD
1000
DSTYLE
1002
{
1070
    40
1040
1.0
1002
}
  0
LWPOLYLINE
  5
15F
102
{ACAD_REACTORS
330
1AF
102
}
330
1F
100
AcDbEntity
  8
0
  6
Continuous
 62
     7
100
AcDbPolyline
 90
       48
 70
   128
 43
0.0
 10
297.6692069372124
 20
396.6734720224392
 10
297.9008301874923
 20
409.6058763885343
 10
295.6749027247955
 20
422.356804222029
 10
290.985610540189
 20
434.4260433436722
 10
283.7356454095219
 20
445.1584066342352
 10
273.9284638340331
 20
453.6709458501848
 10
262.4246506885114
 20
459.569497883938
 10
249.7931216472588
 20
462.5851191170338
 10
238.9215001257043
 20
462.6460291516088
 10
228.2250278988571
 20
460.5060207241144
 10
222.8875924273583
 20
458.3527722199269
 10
217.9005524928738
 20
455.5521899572554
 10
212.8189106821441
 20
452.8783706050078
 10
205.2201005699688
 20
452.3072125844491
 10
198.4139760288793
 20
455.1445346833368
 10
192.0663725181406
 20
458.703383005876
 10
183.9158614764723
 20
461.5214791914718
 10
175.4475983236711
 20
462.7429749286411
 10
162.513733967406
 20
462.1065482834505
 10
150.131788203082
 20
458.2563452892807
 10
138.9902266046005
 20
451.6926446909369
 10
130.6833265160047
 20
443.6501745953662
 10
124.4770339873156
 20
433.9504164599652
 10
120.2770041535995
 20
423.2321659066776
 10
118.0182126184703
 20
411.9458187072677
 10
117.7153423659387
 20
400.444520984045
 10
119.1275731912527
 20
389.0325478689021
 10
122.9036148154063
 20
375.6959592790813
 10
128.9632904088324
 20
363.2917234535431
 10
136.4583961482798
 20
351.7175519667063
 10
144.8982663777164
 20
340.7344590761837
 10
154.219451731922
 20
330.3695406830417
 10
166.999600164639
 20
318.4388074942775
 10
180.8700220660043
 20
307.8093535533052
 10
195.6267775098839
 20
298.6193402707642
 10
200.7042613098673
 20
295.8936721083359
 10
205.9568683814294
 20
293.5737338721227
 10
211.6096949313823
 20
294.1953500684136
 10
221.2010027813457
 20
299.252656740624
 10
230.5136268885511
 20
304.9128772900739
 10
244.4738249517571
 20
314.9686948606251
 10
256.0988703173028
 20
325.0587985895032
 10
266.7994795496619
 20
336.0833053156267
 10
275.6355616640393
 20
346.8072523287018
 10
283.5612270335472
 20
358.1084167996011
 10
290.3886629013736
 20
370.0864648202057
 10
295.2076098235879
 20
383.0759228110091
 10
297.6692105916285
 20
396.6734720224392
  0
LWPOLYLINE
  5
160
102
{ACAD_REACTORS
330
1AF
102
}
330
1F
100
AcDbEntity
  8
0
  6
Continuous
 62
     7
100
AcDbPolyline
 90
       48
 70
   128
 43
0.0
 10
297.6692069372124
 20
219.4409491812997
 10
297.9008301874923
 20
232.3733535473949
 10
295.6749027247955
 20
245.1242813808896
 10
290.985610540189
 20
257.1935205025328
 10
283.7356454095219
 20
267.9258837930957
 10
273.9284638340331
 20
276.4384230090453
 10
262.4246506885114
 20
282.3369750427986
 10
249.7931216472588
 20
285.3525962758944
 10
238.9215001257043
 20
285.4135063104694
 10
228.2250278988571
 20
283.273497882975
 10
222.8875924273583
 20
281.1202493787874
 10
217.9005524928738
 20
278.319667116116
 10
212.8189106821441
 20
275.6458477638683
 10
205.2201005699688
 20
275.0746897433097
 10
198.4139760288793
 20
277.9120118421973
 10
192.0663725181406
 20
281.4708601647366
 10
183.9158614764723
 20
284.2889563503323
 10
175.4475983236711
 20
285.5104520875017
 10
162.513733967406
 20
284.8740254423111
 10
150.131788203082
 20
281.0238224481412
 10
138.9902266046005
 20
274.4601218497975
 10
130.6833265160047
 20
266.4176517542268
 10
124.4770339873156
 20
256.7178936188258
 10
120.2770041535995
 20
245.9996430655382
 10
118.0182126184703
 20
234.7132958661283
 10
117.7153423659387
 20
223.2119981429056
 10
119.1275731912527
 20
211.8000250277627
 10
122.9036148154063
 20
198.4634364379418
 10
128.9632904088324
 20
186.0592006124037
 10
136.4583961482798
 20
174.4850291255669
 10
144.8982663777164
 20
163.5019362350444
 10
154.219451731922
 20
153.1370178419023
 10
166.999600164639
 20
141.2062846531381
 10
180.8700220660043
 20
130.5768307121658
 10
195.6267775098839
 20
121.3868174296248
 10
200.7042613098673
 20
118.6611492671965
 10
205.9568683814294
 20
116.3412110309833
 10
211.6096949313823
 20
116.9628272272743
 10
221.2010027813457
 20
122.0201338994847
 10
230.5136268885511
 20
127.6803544489345
 10
244.4738249517571
 20
137.7361720194857
 10
256.0988703173028
 20
147.8262757483639
 10
266.7994795496619
 20
158.8507824744873
 10
275.6355616640393
 20
169.5747294875624
 10
283.5612270335472
 20
180.8758939584617
 10
290.3886629013736
 20
192.8539419790662
 10
295.2076098235879
 20
205.8433999698697
 10
297.6692105916285
 20
219.4409491812997
  0
LWPOLYLINE
  5
161
330
1F
100
AcDbEntity
  8
0
  6
Continuous
 62
     7
100
AcDbPolyline
 90
       48
 70
   128
 43
0.0
 10
468.4651728541097
 20
308.0058389307618
 10
468.6967961043896
 20
320.938243296857
 10
466.4708686416928
 20
333.6891711303516
 10
461.7815764570863
 20
345.7584102519949
 10
454.5316113264192
 20
356.4907735425578
 10
444.7244297509304
 20
365.0033127585074
 10
433.2206166054087
 20
370.9018647922607
 10
420.5890875641561
 20
373.9174860253565
 10
409.7174660426016
 20
373.9783960599315
 10
399.0209938157544
 20
371.8383876324371
 10
393.6835583442556
 20
369.6851391282495
 10
388.6965184097711
 20
366.8845568655781
 10
383.6148765990414
 20
364.2107375133305
 10
376.0160664868662
 20
363.6395794927718
 10
369.2099419457767
 20
366.4769015916594
 10
362.8623384350379
 20
370.0357499141987
 10
354.7118273933696
 20
372.8538460997945
 10
346.2435642405684
 20
374.0753418369638
 10
333.3096998843033
 20
373.4389151917732
 10
320.9277541199793
 20
369.5887121976033
 10
309.7861925214978
 20
363.0250115992595
 10
301.4792924329021
 20
354.9825415036888
 10
295.272999904213
 20
345.2827833682878
 10
291.0729700704968
 20
334.5645328150002
 10
288.8141785353677
 20
323.2781856155904
 10
288.511308282836
 20
311.7768878923677
 10
289.9235391081501
 20
300.3649147772247
 10
293.6995807323036
 20
287.0283261874039
 10
299.7592563257298
 20
274.6240903618658
 10
307.2543620651771
 20
263.049918875029
 10
315.6942322946137
 20
252.0668259845064
 10
325.0154176488194
 20
241.7019075913644
 10
337.7955660815363
 20
229.7711744026002
 10
351.6659879829016
 20
219.1417204616279
 10
366.4227434267813
 20
209.9517071790868
 10
371.5002272267647
 20
207.2260390166585
 10
376.7528342983268
 20
204.9061007804454
 10
382.4056608482796
 20
205.5277169767363
 10
391.996968698243
 20
210.5850236489467
 10
401.3095928054485
 20
216.2452441983966
 10
415.2697908686545
 20
226.3010617689478
 10
426.8948362342002
 20
236.3911654978259
 10
437.5954454665592
 20
247.4156722239494
 10
446.4315275809366
 20
258.1396192370245
 10
454.3571929504445
 20
269.4407837079237
 10
461.1846288182709
 20
281.4188317285283
 10
466.0035757404852
 20
294.4082897193317
 10
468.4651765085258
 20
308.0058389307618
  0
LWPOLYLINE
  5
162
330
1F
100
AcDbEntity
  8
0
  6
Continuous
 62
     7
100
AcDbPolyline
 90
       48
 70
   128
 43
0.0
 10
468.4651728541097
 20
130.7733160896224
 10
468.6967961043896
 20
143.7057204557176
 10
466.4708686416928
 20
156.4566482892122
 10
461.7815764570863
 20
168.5258874108555
 10
454.5316113264192
 20
179.2582507014184
 10
444.7244297509304
 20
187.770789917368
 10
433.2206166054087
 20
193.6693419511213
 10
420.5890875641561
 20
196.6849631842171
 10
409.7174660426016
 20
196.7458732187921
 10
399.0209938157544
 20
194.6058647912977
 10
393.6835583442556
 20
192.4526162871101
 10
388.6965184097711
 20
189.6520340244386
 10
383.6148765990414
 20
186.978214672191
 10
376.0160664868662
 20
186.4070566516324
 10
369.2099419457767
 20
189.24437875052
 10
362.8623384350379
 20
192.8032270730592
 10
354.7118273933696
 20
195.621323258655
 10
346.2435642405684
 20
196.8428189958244
 10
333.3096998843033
 20
196.2063923506338
 10
320.9277541199793
 20
192.3561893564639
 10
309.7861925214978
 20
185.7924887581202
 10
301.4792924329021
 20
177.7500186625495
 10
295.272999904213
 20
168.0502605271485
 10
291.0729700704968
 20
157.3320099738609
 10
288.8141785353677
 20
146.045662774451
 10
288.511308282836
 20
134.5443650512283
 10
289.9235391081501
 20
123.1323919360854
 10
293.6995807323036
 20
109.7958033462645
 10
299.7592563257298
 20
97.39156752072643
 10
307.2543620651771
 20
85.81739603388962
 10
315.6942322946137
 20
74.83430314336704
 10
325.0154176488194
 20
64.469384750225
 10
337.7955660815363
 20
52.53865156146082
 10
351.6659879829016
 20
41.9091976204885
 10
366.4227434267813
 20
32.71918433794747
 10
371.5002272267647
 20
29.99351617551918
 10
376.7528342983268
 20
27.67357793930603
 10
382.4056608482796
 20
28.29519413559694
 10
391.996968698243
 20
33.35250080780736
 10
401.3095928054485
 20
39.01272135725719
 10
415.2697908686545
 20
49.06853892780839
 10
426.8948362342002
 20
59.15864265668654
 10
437.5954454665592
 20
70.18314938281003
 10
446.4315275809366
 20
80.9070963958851
 10
454.3571929504445
 20
92.20826086678437
 10
461.1846288182709
 20
104.1863088873889
 10
466.0035757404852
 20
117.1757668781923
 10
468.4651765085258
 20
130.7733160896224
  0
DIMENSION
  5
169
330
1F
100
AcDbEntity
  8
LAY_OUT
 62
     1
100
AcDbDimension
  2
*D10
 10
656.9083772920546
 20
13.94794104264395
 30
0.0
 11
656.9083772920546
 21
191.6874229117499
 31
0.0
 70
   160
 71
     5
 42
360.0000000000001
  3
STANDARD
100
AcDbAlignedDimension
 13
415.1532768033788
 23
373.947941042644
 33
0.0
 14
415.1532768033786
 24
13.94794104264395
 34
0.0
 50
90.0
100
AcDbRotatedDimension
1001
ACAD
1000
DSTYLE
1002
{
1070
    40
1040
1.0
1070
   144
1040
1.0
1002
}
  0
DIMENSION
  5
16A
330
1F
100
AcDbEntity
  8
LAY_OUT
100
AcDbDimension
  2
*D11
 10
468.6967961043896
 20
565.5762715459641
 30
0.0
 11
288.3465285518999
 21
565.5762715459641
 31
0.0
 70
   160
 71
     5
 42
350.9814537384509
  3
STANDARD
100
AcDbAlignedDimension
 13
117.7153423659387
 23
223.2119981429056
 33
0.0
 14
468.6967961043896
 24
143.7057204557176
 34
0.0
100
AcDbRotatedDimension
1001
ACAD
1000
DSTYLE
1002
{
1070
    40
1040
1.0
1070
   144
1040
1.0
1002
}
  0
DIMENSION
  5
1BC
330
1F
100
AcDbEntity
  8
LAY_OUT
100
AcDbDimension
  2
*D13
 10
42.73960385516147
 20
116.3412110309833
 30
0.0
 11
42.73960385516148
 21
278.2078246335578
 31
0.0
 70
   160
 71
     5
 42
346.4017638976578
  3
STANDARD
100
AcDbAlignedDimension
 13
175.4475983236711
 23
462.7429749286411
 33
0.0
 14
206.7305328140097
 24
116.3412110309833
 34
0.0
 50
90.0
100
AcDbRotatedDimension
1001
ACAD
1000
DSTYLE
1002
{
1070
    40
1040
1.0
1070
   144
1040
1.0
1002
}
  0
MTEXT
  5
1F3
330
1F
100
AcDbEntity
  8
LAY_OUT
100
AcDbMText
 10
126.9923264740058
 20
70.30982531755222
 30
0.0
 40
12.0
 41
185.6438257494656
 71
     1
 72
     5
  1
Площадь 227.02
 73
     1
 44
1.0
1001
ACAD
1000
ACAD_MTEXT_COLUMN_INFO_BEGIN
1070
    75
1070
     2
1070
    79
1070
     0
1070
    76
1070
     1
1070
    78
1070
     0
1070
    48
1040
185.6438257494656
1070
    49
1040
60.0
1070
    50
1070
     1
1040
0.0
1000
ACAD_MTEXT_COLUMN_INFO_END
  0
ENDSEC
  0
SECTION
  2
OBJECTS
  0
DICTIONARY
  5
C
330
0
100
AcDbDictionary
281
     1
  3
ACAD_DETAILVIEWSTYLE
350
B5
  3
ACAD_GROUP
350
D
  3
ACAD_IMAGE_VARS
350
6A
  3
ACAD_LAYOUT
350
1A
  3
ACAD_MLINESTYLE
350
17
  3
ACAD_PLOTSETTINGS
350
19
  3
ACAD_PLOTSTYLENAME
350
E
  3
ACAD_SCALELIST
350
40
  3
ACAD_SECTIONVIEWSTYLE
350
B6
  3
AcDbVariableDictionary
350
3D
  3
APPDATA
350
71
  3
DWGPROPS
350
1F4
  0
DICTIONARY
  5
148
330
2
100
AcDbDictionary
280
     1
281
     1
  3
ACAD_LAYERSTATES
360
149
  0
DICTIONARY
  5
B5
102
{ACAD_REACTORS
330
C
102
}
330
C
100
AcDbDictionary
281
     1
  0
DICTIONARY
  5
D
102
{ACAD_REACTORS
330
C
102
}
330
C
100
AcDbDictionary
281
     1
  0
RASTERVARIABLES
  5
6A
102
{ACAD_REACTORS
330
C
102
}
330
C
100
AcDbRasterVariables
 90
        0
 70
     1
 71
     1
 72
     1
  0
DICTIONARY
  5
1A
102
{ACAD_REACTORS
330
C
102
}
330
C
100
AcDbDictionary
281
     1
  3
Model
350
22
  3
Sheet1
350
1E
  3
Sheet2
350
26
  0
DICTIONARY
  5
17
102
{ACAD_REACTORS
330
C
102
}
330
C
100
AcDbDictionary
281
     1
  3
Standard
350
18
  0
DICTIONARY
  5
19
102
{ACAD_REACTORS
330
C
102
}
330
C
100
AcDbDictionary
281
     1
  0
ACDBDICTIONARYWDFLT
  5
E
102
{ACAD_REACTORS
330
C
102
}
330
C
100
AcDbDictionary
281
     1
  3
Normal
350
F
100
AcDbDictionaryWithDefault
340
F
  0
DICTIONARY
  5
40
102
{ACAD_REACTORS
330
C
102
}
330
C
100
AcDbDictionary
281
     1
  3
A0
350
41
  3
A1
350
42
  3
A2
350
43
  3
A3
350
44
  3
A4
350
45
  3
A5
350
46
  3
A6
350
47
  3
A7
350
48
  3
A8
350
49
  3
A9
350
4A
  3
B0
350
4B
  3
B1
350
4C
  3
B2
350
4D
  3
B3
350
4E
  3
B4
350
4F
  3
B5
350
50
  3
B6
350
51
  3
B7
350
52
  3
B8
350
53
  3
B9
350
54
  3
C0
350
55
  3
C1
350
56
  3
C2
350
57
  3
C3
350
58
  3
C4
350
59
  3
C5
350
5A
  3
C6
350
5B
  3
C7
350
5C
  3
C8
350
5D
  3
C9
350
5E
  3
D0
350
5F
  3
D1
350
60
  3
D2
350
61
  0
DICTIONARY
  5
B6
102
{ACAD_REACTORS
330
C
102
}
330
C
100
AcDbDictionary
281
     1
  0
DICTIONARY
  5
3D
102
{ACAD_REACTORS
330
C
102
}
330
C
100
AcDbDictionary
281
     1
  0
DICTIONARY
  5
71
102
{ACAD_REACTORS
330
C
102
}
330
C
100
AcDbDictionary
281
     1
  0
XRECORD
  5
1F4
102
{ACAD_REACTORS
330
C
102
}
330
C
100
AcDbXrecord
280
     1
  1
DWGPROPS COOKIE
  2

  3

  4

  6

  7

  8
Master
  9

300
=
301
=
302
=
303
=
304
=
305
=
306
=
307
=
308
=
309
=
 40
0.0
 41
2455022.637359514
 42
2458506.52829066
  1

 90
        0
  0
DICTIONARY
  5
149
102
{ACAD_REACTORS
330
148
102
}
330
148
100
AcDbDictionary
281
     1
  0
LAYOUT
  5
22
102
{ACAD_REACTORS
330
1A
102
}
330
1A
100
AcDbPlotSettings
  1

  2
none_device
  4
ISO_A3_(420.00_x_297.00_MM)
  6

 40
7.5
 41
20.0
 42
7.5
 43
20.0
 44
420.0
 45
297.0
 46
20.78282828282826
 47
0.0
 48
0.0
 49
0.0
140
0.0
141
0.0
142
1.0
143
1.155642023346303
 70
  1204
 72
     1
 73
     0
 74
     1
  7
monochrome.ctb
 75
     0
147
0.8653198653198654
148
-134.1869158878504
149
0.0
100
AcDbLayout
  1
Model
 70
     1
 71
     0
 10
0.0
 20
0.0
 11
420.0
 21
297.0
 12
0.0
 22
0.0
 32
0.0
 14
10.61748858450517
 24
8.85143466296961
 34
0.0
 15
662.9083772920546
 25
632.8760377012347
 35
0.0
146
0.0
 13
0.0
 23
0.0
 33
0.0
 16
1.0
 26
0.0
 36
0.0
 17
0.0
 27
1.0
 37
0.0
 76
     0
330
1F
331
29
  0
LAYOUT
  5
1E
102
{ACAD_REACTORS
330
1A
102
}
330
1A
100
AcDbPlotSettings
  1

  2
none_device
  4

  6

 40
0.0
 41
0.0
 42
0.0
 43
0.0
 44
0.0
 45
0.0
 46
0.0
 47
0.0
 48
0.0
 49
0.0
140
0.0
141
0.0
142
1.0
143
1.0
 70
   688
 72
     0
 73
     0
 74
     5
  7

 75
    16
147
1.0
148
0.0
149
0.0
100
AcDbLayout
  1
Sheet1
 70
     1
 71
     1
 10
0.0
 20
0.0
 11
420.0
 21
297.0
 12
0.0
 22
0.0
 32
0.0
 14
1.000000000000000E+20
 24
1.000000000000000E+20
 34
1.000000000000000E+20
 15
-1.000000000000000E+20
 25
-1.000000000000000E+20
 35
-1.000000000000000E+20
146
0.0
 13
0.0
 23
0.0
 33
0.0
 16
1.0
 26
0.0
 36
0.0
 17
0.0
 27
1.0
 37
0.0
 76
     0
330
1B
  0
LAYOUT
  5
26
102
{ACAD_REACTORS
330
1A
102
}
330
1A
100
AcDbPlotSettings
  1

  2
none_device
  4

  6

 40
0.0
 41
0.0
 42
0.0
 43
0.0
 44
0.0
 45
0.0
 46
0.0
 47
0.0
 48
0.0
 49
0.0
140
0.0
141
0.0
142
1.0
143
1.0
 70
   688
 72
     0
 73
     0
 74
     5
  7

 75
    16
147
1.0
148
0.0
149
0.0
100
AcDbLayout
  1
Sheet2
 70
     1
 71
     2
 10
0.0
 20
0.0
 11
0.0
 21
0.0
 12
0.0
 22
0.0
 32
0.0
 14
0.0
 24
0.0
 34
0.0
 15
0.0
 25
0.0
 35
0.0
146
0.0
 13
0.0
 23
0.0
 33
0.0
 16
1.0
 26
0.0
 36
0.0
 17
0.0
 27
1.0
 37
0.0
 76
     0
330
23
  0
MLINESTYLE
  5
18
102
{ACAD_REACTORS
330
17
102
}
330
17
100
AcDbMlineStyle
  2
Standard
 70
     0
  3

 62
   256
 51
90.0
 52
90.0
 71
     2
 49
0.5
 62
   256
  6
BYLAYER
 49
-0.5
 62
   256
  6
BYLAYER
  0
ACDBPLACEHOLDER
  5
F
102
{ACAD_REACTORS
330
E
102
}
330
E
  0
SCALE
  5
41
102
{ACAD_REACTORS
330
40
102
}
330
40
100
AcDbScale
 70
     0
300
1:1
140
1.0
141
1.0
290
     1
  0
SCALE
  5
42
102
{ACAD_REACTORS
330
40
102
}
330
40
100
AcDbScale
 70
     0
300
1:2
140
1.0
141
2.0
290
     0
  0
SCALE
  5
43
102
{ACAD_REACTORS
330
40
102
}
330
40
100
AcDbScale
 70
     0
300
1:4
140
1.0
141
4.0
290
     0
  0
SCALE
  5
44
102
{ACAD_REACTORS
330
40
102
}
330
40
100
AcDbScale
 70
     0
300
1:5
140
1.0
141
5.0
290
     0
  0
SCALE
  5
45
102
{ACAD_REACTORS
330
40
102
}
330
40
100
AcDbScale
 70
     0
300
1:8
140
1.0
141
8.0
290
     0
  0
SCALE
  5
46
102
{ACAD_REACTORS
330
40
102
}
330
40
100
AcDbScale
 70
     0
300
1:10
140
1.0
141
10.0
290
     0
  0
SCALE
  5
47
102
{ACAD_REACTORS
330
40
102
}
330
40
100
AcDbScale
 70
     0
300
1:16
140
1.0
141
16.0
290
     0
  0
SCALE
  5
48
102
{ACAD_REACTORS
330
40
102
}
330
40
100
AcDbScale
 70
     0
300
1:20
140
1.0
141
20.0
290
     0
  0
SCALE
  5
49
102
{ACAD_REACTORS
330
40
102
}
330
40
100
AcDbScale
 70
     0
300
1:30
140
1.0
141
30.0
290
     0
  0
SCALE
  5
4A
102
{ACAD_REACTORS
330
40
102
}
330
40
100
AcDbScale
 70
     0
300
1:40
140
1.0
141
40.0
290
     0
  0
SCALE
  5
4B
102
{ACAD_REACTORS
330
40
102
}
330
40
100
AcDbScale
 70
     0
300
1:50
140
1.0
141
50.0
290
     0
  0
SCALE
  5
4C
102
{ACAD_REACTORS
330
40
102
}
330
40
100
AcDbScale
 70
     0
300
1:100
140
1.0
141
100.0
290
     0
  0
SCALE
  5
4D
102
{ACAD_REACTORS
330
40
102
}
330
40
100
AcDbScale
 70
     0
300
2:1
140
2.0
141
1.0
290
     0
  0
SCALE
  5
4E
102
{ACAD_REACTORS
330
40
102
}
330
40
100
AcDbScale
 70
     0
300
4:1
140
4.0
141
1.0
290
     0
  0
SCALE
  5
4F
102
{ACAD_REACTORS
330
40
102
}
330
40
100
AcDbScale
 70
     0
300
8:1
140
8.0
141
1.0
290
     0
  0
SCALE
  5
50
102
{ACAD_REACTORS
330
40
102
}
330
40
100
AcDbScale
 70
     0
300
10:1
140
10.0
141
1.0
290
     0
  0
SCALE
  5
51
102
{ACAD_REACTORS
330
40
102
}
330
40
100
AcDbScale
 70
     0
300
100:1
140
100.0
141
1.0
290
     0
  0
SCALE
  5
52
102
{ACAD_REACTORS
330
40
102
}
330
40
100
AcDbScale
 70
     0
300
1/128" = 1'-0"
140
0.0078125
141
12.0
290
     0
  0
SCALE
  5
53
102
{ACAD_REACTORS
330
40
102
}
330
40
100
AcDbScale
 70
     0
300
1/64" = 1'-0"
140
0.015625
141
12.0
290
     0
  0
SCALE
  5
54
102
{ACAD_REACTORS
330
40
102
}
330
40
100
AcDbScale
 70
     0
300
1/32" = 1'-0"
140
0.03125
141
12.0
290
     0
  0
SCALE
  5
55
102
{ACAD_REACTORS
330
40
102
}
330
40
100
AcDbScale
 70
     0
300
1/16" = 1'-0"
140
0.0625
141
12.0
290
     0
  0
SCALE
  5
56
102
{ACAD_REACTORS
330
40
102
}
330
40
100
AcDbScale
 70
     0
300
3/32" = 1'-0"
140
0.09375
141
12.0
290
     0
  0
SCALE
  5
57
102
{ACAD_REACTORS
330
40
102
}
330
40
100
AcDbScale
 70
     0
300
1/8" = 1'-0"
140
0.125
141
12.0
290
     0
  0
SCALE
  5
58
102
{ACAD_REACTORS
330
40
102
}
330
40
100
AcDbScale
 70
     0
300
3/16" = 1'-0"
140
0.1875
141
12.0
290
     0
  0
SCALE
  5
59
102
{ACAD_REACTORS
330
40
102
}
330
40
100
AcDbScale
 70
     0
300
1/4" = 1'-0"
140
0.25
141
12.0
290
     0
  0
SCALE
  5
5A
102
{ACAD_REACTORS
330
40
102
}
330
40
100
AcDbScale
 70
     0
300
3/8" = 1'-0"
140
0.375
141
12.0
290
     0
  0
SCALE
  5
5B
102
{ACAD_REACTORS
330
40
102
}
330
40
100
AcDbScale
 70
     0
300
1/2" = 1'-0"
140
0.5
141
12.0
290
     0
  0
SCALE
  5
5C
102
{ACAD_REACTORS
330
40
102
}
330
40
100
AcDbScale
 70
     0
300
3/4" = 1'-0"
140
0.75
141
12.0
290
     0
  0
SCALE
  5
5D
102
{ACAD_REACTORS
330
40
102
}
330
40
100
AcDbScale
 70
     0
300
1" = 1'-0"
140
1.0
141
12.0
290
     0
  0
SCALE
  5
5E
102
{ACAD_REACTORS
330
40
102
}
330
40
100
AcDbScale
 70
     0
300
1-1/2" = 1'-0"
140
1.5
141
12.0
290
     0
  0
SCALE
  5
5F
102
{ACAD_REACTORS
330
40
102
}
330
40
100
AcDbScale
 70
     0
300
3" = 1'-0"
140
3.0
141
12.0
290
     0
  0
SCALE
  5
60
102
{ACAD_REACTORS
330
40
102
}
330
40
100
AcDbScale
 70
     0
300
6" = 1'-0"
140
6.0
141
12.0
290
     0
  0
SCALE
  5
61
102
{ACAD_REACTORS
330
40
102
}
330
40
100
AcDbScale
 70
     0
300
1'-0" = 1'-0"
140
12.0
141
12.0
290
     0
  0
ENDSEC
  0
EOF
